<svg width="65" height="65" viewBox="0 0 65 65" fill="none" xmlns="http://www.w3.org/2000/svg">
<path d="M16.2497 0C11.1425 0 6.96387 4.17857 6.96387 9.4016C6.96387 12.1873 9.86565 18.223 12.7675 23.4461C12.7675 23.5621 12.8836 23.5621 12.8836 23.6782C14.0443 25.8836 15.3211 27.8568 16.2497 29.4818C17.2943 27.8568 18.4551 25.7675 19.7318 23.5621C22.6336 18.3389 25.5355 12.3034 25.5355 9.51764C25.5355 4.17835 21.3569 0 16.2497 0ZM16.2497 16.3659C12.4193 16.3659 9.28532 13.2319 9.28532 9.28557C9.28532 5.33921 12.4193 2.32128 16.2497 2.32128C20.0801 2.32128 23.2141 5.45525 23.2141 9.4016C23.2141 13.348 20.0801 16.3659 16.2497 16.3659Z" fill="#62A944"/>
<path d="M20.8923 9.51749C20.8923 12.0711 18.803 14.1603 16.2494 14.1603C13.6958 14.1603 11.6064 12.0711 11.6064 9.51749C11.6064 6.96392 13.6958 4.87463 16.2494 4.87463C18.803 4.87463 20.8923 6.96392 20.8923 9.51749Z" fill="#62A944"/>
<path d="M17.4103 33.8929C17.4103 34.4732 16.83 35.0536 16.2496 35.0536C15.6692 35.0536 15.0889 34.4732 15.0889 33.8929C15.0889 33.3125 15.6692 32.7321 16.2496 32.7321C16.83 32.7321 17.4103 33.3125 17.4103 33.8929Z" fill="#62A944"/>
<path d="M62.3311 55.3666C62.7954 55.8309 62.7954 56.5274 62.3311 56.9916C62.0989 57.2238 61.7507 57.3399 61.5185 57.3399C61.2863 57.3399 60.9382 57.2238 60.706 56.9916L59.1971 55.4828L57.6882 56.9916C57.456 57.2238 57.1078 57.3399 56.8756 57.3399C56.6434 57.3399 56.2952 57.2238 56.0631 56.9916C55.5988 56.5274 55.5988 55.8309 56.0631 55.3666L57.572 53.8578L56.0631 52.3489C55.5988 51.8846 55.5988 51.1881 56.0631 50.7239C56.5274 50.2596 57.2238 50.2596 57.6881 50.7239L59.197 52.2328L60.7059 50.7239C61.1702 50.2596 61.8666 50.2596 62.3309 50.7239C62.7952 51.1881 62.7952 51.8846 62.3309 52.3489L60.822 53.8578L62.3311 55.3666Z" fill="#62A944"/>
<path d="M49.9112 24.027V34.0095C49.9112 34.7059 49.3308 35.1702 48.7505 35.1702C48.1701 35.1702 47.5898 34.5898 47.5898 34.0095V24.027L33.661 29.5984V34.0091C33.661 34.7056 33.0807 35.1698 32.5003 35.1698C31.9199 35.1698 31.3396 34.5895 31.3396 34.0091V29.5984L21.2411 25.5359C19.9642 27.7413 18.8036 29.7144 17.991 30.9913C19.0356 31.5716 19.7321 32.7324 19.7321 34.0091C19.7321 35.518 18.8036 36.7948 17.4107 37.2591V40.9734C17.4107 41.6698 17.9911 42.1341 18.5714 42.1341H56.8751C58.8483 42.1341 60.3572 43.7591 60.3572 45.6163V46.777C60.3572 47.4734 59.7769 47.9377 59.1965 47.9377C58.6161 47.9377 58.0358 47.3573 58.0358 46.777V45.6163C58.0358 44.9198 57.4554 44.4556 56.8751 44.4556H18.5714C16.7143 44.4556 15.0892 42.8306 15.0892 40.9734V37.2591C13.6964 36.7948 12.7678 35.518 12.7678 34.0091C12.7678 32.7323 13.4642 31.5717 14.5089 30.9913C13.6964 29.7144 12.5357 27.8573 11.2589 25.5359L0 30.0627V65L15.0891 58.9643V52.6964C15.0891 52 15.6695 51.5357 16.2498 51.5357C16.8302 51.5357 17.4105 52.1161 17.4105 52.6964V58.9643L31.3393 64.5357V52.6961C31.3393 51.9996 31.9196 51.5353 32.5 51.5353C33.0804 51.5353 33.6607 52.1157 33.6607 52.6961V64.5357L47.5895 58.9643V52.6964C47.5895 52 48.1698 51.5357 48.7502 51.5357C49.3305 51.5357 49.9109 52.1161 49.9109 52.6964V58.9643L65 65V30.0627L49.9112 24.027ZM62.3312 55.3666C62.7955 55.8309 62.7955 56.5273 62.3312 56.9916C62.099 57.2238 61.7508 57.3398 61.5186 57.3398C61.2864 57.3398 60.9383 57.2238 60.7061 56.9916L59.1972 55.4827L57.6883 56.9916C57.4561 57.2238 57.1079 57.3398 56.8757 57.3398C56.6435 57.3398 56.2954 57.2238 56.0632 56.9916C55.5989 56.5273 55.5989 55.8309 56.0632 55.3666L57.5721 53.8577L56.0632 52.3489C55.5989 51.8846 55.5989 51.1881 56.0632 50.7239C56.5275 50.2596 57.2239 50.2596 57.6882 50.7239L59.1971 52.2327L60.706 50.7239C61.1703 50.2596 61.8667 50.2596 62.331 50.7239C62.7953 51.1881 62.7953 51.8846 62.331 52.3489L60.8221 53.8577L62.3312 55.3666Z" fill="#FFA742"/>
</svg>
