<svg width="65" height="65" viewBox="0 0 65 65" fill="none" xmlns="http://www.w3.org/2000/svg">
<path fill-rule="evenodd" clip-rule="evenodd" d="M48.2043 51.3862C47.7449 51.1165 47.092 50.7487 46.2456 50.2829C45.3994 49.8171 44.6317 49.3881 43.9425 48.9957C43.2533 48.6035 42.6064 48.2235 42.0019 47.8557C41.9053 47.7822 41.6031 47.5677 41.0953 47.2121C40.686 46.9166 40.2556 46.6523 39.8076 46.4215C39.4868 46.2572 39.1332 46.1691 38.7738 46.164C38.2903 46.164 37.6857 46.5134 36.9603 47.2121C36.2327 47.9134 35.5653 48.6762 34.9654 49.4922C34.3761 50.2955 33.7339 51.0573 33.043 51.7724C32.366 52.4712 31.8099 52.8205 31.3746 52.8204C31.0942 52.807 30.8182 52.7449 30.5585 52.6366C30.3056 52.5452 30.0574 52.4409 29.8149 52.3241C29.6457 52.2382 29.3555 52.0665 28.9445 51.8091C28.5334 51.5518 28.3036 51.4108 28.2552 51.3862C25.1335 49.6669 22.2644 47.5129 19.7316 44.9871C17.2405 42.419 15.1162 39.51 13.4205 36.3448C13.3962 36.2958 13.2572 36.0629 13.0033 35.6461C12.7495 35.2293 12.5802 34.9351 12.4955 34.7635C12.3802 34.5177 12.2773 34.266 12.1872 34.0096C12.0805 33.7463 12.0192 33.4665 12.0059 33.1822C12.0059 32.7408 12.3505 32.1769 13.0396 31.4904C13.7449 30.7899 14.4962 30.1387 15.2884 29.5413C16.0933 28.9331 16.8456 28.2564 17.5372 27.5186C18.2263 26.783 18.5709 26.1701 18.5709 25.6798C18.5659 25.3154 18.4791 24.957 18.317 24.6317C18.0893 24.1775 17.8287 23.7411 17.5372 23.3261C17.1866 22.8113 16.975 22.5048 16.9024 22.4068C16.5397 21.7938 16.1649 21.138 15.778 20.4393C15.3911 19.7404 14.9679 18.962 14.5086 18.104C14.0492 17.2458 13.6865 16.5838 13.4205 16.118C12.5741 14.4019 11.9333 13.4702 11.4981 13.3231C11.2534 13.2374 10.9949 13.2 10.7364 13.2127C9.87347 13.2414 9.01613 13.3648 8.17936 13.5805C7.3299 13.7615 6.49832 14.02 5.69477 14.3528C4.4857 14.8677 3.2041 16.3632 1.84998 18.8395C0.319233 21.4835 -0.287716 24.5736 0.127174 27.6105C0.230742 28.325 0.382207 29.0316 0.580518 29.7253C0.798075 30.5096 0.973384 31.0919 1.10644 31.472C1.23946 31.852 1.48729 32.5324 1.84995 33.5131C2.21276 34.4937 2.43041 35.0944 2.50291 35.3151C3.27661 37.5633 4.28585 39.7209 5.51332 41.7508C7.74118 45.2873 10.364 48.5513 13.3298 51.4781C16.2164 54.4852 19.4356 57.1445 22.9234 59.4034C24.9256 60.648 27.0535 61.6713 29.2709 62.4558C29.4885 62.5293 30.0809 62.75 31.0481 63.1178C32.0154 63.4855 32.6864 63.7368 33.0612 63.8716C33.436 64.0065 34.0103 64.1842 34.7841 64.4048C35.4681 64.606 36.1649 64.7596 36.8696 64.8646C39.8649 65.2851 42.9125 64.6697 45.5203 63.1178C47.9625 61.7448 49.4375 60.4454 49.9454 59.2195C50.2736 58.4048 50.5285 57.5616 50.707 56.7004C50.9198 55.8519 51.0414 54.9826 51.0697 54.1076C51.0823 53.8455 51.0454 53.5834 50.9608 53.3354C50.8159 52.8941 49.897 52.2443 48.2043 51.3862Z" fill="#FFA742"/>
<path fill-rule="evenodd" clip-rule="evenodd" d="M64.9973 18.5073C64.9579 15.603 64.2544 12.7477 62.9421 10.1658C61.6298 7.58396 59.7445 5.34611 57.4345 3.62831C55.1245 1.91052 52.4529 0.759655 49.6299 0.266275C46.8069 -0.227106 43.9094 -0.0495433 41.1656 0.784992C38.4217 1.61953 35.9063 3.08827 33.8172 5.07565C31.7281 7.06303 30.1223 9.51483 29.1263 12.2381C28.1302 14.9614 27.771 17.882 28.0769 20.7699C28.3828 23.6578 29.3455 26.4344 30.8893 28.8811C29.4012 30.8826 27.517 32.5467 25.3574 33.7665C25.8247 34.9893 27.5448 35.3629 28.7295 35.4813C31.2965 35.7374 33.8386 35.2248 36.3361 34.5007C39.149 36.3702 42.4111 37.4275 45.772 37.559C49.1329 37.6904 52.4656 36.8911 55.4123 35.2468C58.3589 33.6026 60.8081 31.1755 62.4968 28.2263C64.1855 25.2771 65.0499 21.9171 64.9973 18.5073ZM38.3315 21.96C37.7638 21.96 37.2089 21.7893 36.7369 21.4695C36.2648 21.1497 35.897 20.6952 35.6797 20.1634C35.4625 19.6316 35.4057 19.0465 35.5164 18.4819C35.6272 17.9174 35.9005 17.3989 36.302 16.9919C36.7034 16.5849 37.2148 16.3077 37.7716 16.1954C38.3284 16.0831 38.9055 16.1408 39.43 16.361C39.9544 16.5813 40.4027 16.9543 40.7181 17.4329C41.0335 17.9115 41.2018 18.4742 41.2018 19.0497C41.2018 19.4319 41.1276 19.8104 40.9833 20.1635C40.8391 20.5165 40.6276 20.8374 40.3611 21.1076C40.0946 21.3779 39.7782 21.5922 39.4299 21.7385C39.0817 21.8847 38.7084 21.96 38.3315 21.96ZM46.7446 21.96C46.1769 21.96 45.622 21.7893 45.15 21.4695C44.678 21.1497 44.3101 20.6952 44.0929 20.1634C43.8756 19.6316 43.8188 19.0465 43.9296 18.4819C44.0403 17.9174 44.3137 17.3989 44.7151 16.9919C45.1165 16.5849 45.628 16.3077 46.1847 16.1954C46.7415 16.0831 47.3186 16.1408 47.8431 16.361C48.3676 16.5813 48.8159 16.9543 49.1312 17.4329C49.4466 17.9115 49.615 18.4742 49.615 19.0497C49.615 19.4319 49.5407 19.8104 49.3965 20.1635C49.2522 20.5165 49.0408 20.8374 48.7743 21.1076C48.5077 21.3779 48.1913 21.5922 47.8431 21.7385C47.4948 21.8847 47.1216 21.96 46.7446 21.96ZM55.1577 21.96C54.59 21.96 54.0351 21.7893 53.5631 21.4695C53.0911 21.1497 52.7232 20.6952 52.506 20.1634C52.2887 19.6316 52.2319 19.0465 52.3427 18.4819C52.4534 17.9174 52.7268 17.3989 53.1282 16.9919C53.5296 16.5849 54.0411 16.3077 54.5978 16.1954C55.1546 16.0831 55.7317 16.1408 56.2562 16.361C56.7807 16.5813 57.2289 16.9543 57.5443 17.4329C57.8597 17.9115 58.0281 18.4742 58.0281 19.0497C58.0281 19.4319 57.9538 19.8104 57.8096 20.1635C57.6653 20.5165 57.4539 20.8374 57.1874 21.1076C56.9208 21.3779 56.6044 21.5922 56.2561 21.7385C55.9079 21.8847 55.5347 21.96 55.1577 21.96Z" fill="#62A944"/>
</svg>
