<svg width="65" height="66" viewBox="0 0 65 66" fill="none" xmlns="http://www.w3.org/2000/svg">
<path fill-rule="evenodd" clip-rule="evenodd" d="M17.342 45.6192C15.4952 45.6192 12.7684 44.7634 10.2637 43.2982C9.23196 42.697 7.90516 43.0436 7.30131 44.0728C6.70016 45.1073 7.04677 46.4343 8.07846 47.0382C11.3441 48.9475 14.932 49.9496 17.3418 49.9496C18.5387 49.9496 19.5081 48.98 19.5081 47.783C19.5081 46.5859 18.5387 45.6164 17.3418 45.6164L17.342 45.6192ZM5.06183 38.1821C4.1547 36.3351 4.03824 34.1604 5.21618 31.7392C5.7415 30.6613 5.292 29.3641 4.21699 28.8414C3.13926 28.316 1.8422 28.7656 1.31959 29.8408C-0.55692 33.6946 -0.272635 37.153 1.17337 40.094C1.69869 41.1665 2.99844 41.6106 4.07077 41.0852C5.14579 40.5571 5.58716 39.2572 5.06184 38.1847L5.06183 38.1821ZM10.1796 25.8246C11.9804 24.2918 14.2251 22.7102 16.9736 21.0853C18.0026 20.4759 18.3438 19.1462 17.7373 18.1171C17.128 17.088 15.7984 16.7467 14.7695 17.3561C11.7746 19.1273 9.3349 20.8551 7.3716 22.526C6.46176 23.3006 6.35071 24.671 7.12789 25.5809C7.90234 26.4908 9.26976 26.6019 10.1823 25.8246L10.1796 25.8246ZM32.5356 0.121083C30.7538 0.115667 29.1508 1.20707 28.4955 2.86719C27.8429 4.53001 28.2735 6.41767 29.584 7.63096L33.4725 11.2383L33.616 16.541C33.6648 18.323 34.7993 19.8937 36.4782 20.5003C38.1544 21.107 40.0309 20.6222 41.2061 19.2817C43.7948 16.3243 47.2933 12.3271 50.093 9.12821C51.4929 7.53036 51.8287 5.26089 50.9541 3.3272C50.0795 1.3935 48.1542 0.147776 46.0312 0.145072L32.538 0.123406L32.5356 0.121083ZM24.4632 17.1556C25.8929 16.4785 27.412 15.7988 29.0232 15.1136C30.1225 14.6451 30.6343 13.3722 30.1658 12.2699C29.6974 11.1704 28.4247 10.6585 27.3226 11.1271C25.66 11.8339 24.0921 12.5381 22.6136 13.2341C21.5332 13.746 21.0701 15.0378 21.5792 16.1184C22.0883 17.2017 23.3827 17.6647 24.4632 17.1556ZM32.5273 4.45424L46.0178 4.4759C46.4429 4.4759 46.8274 4.72506 47.0034 5.11233C47.1795 5.4969 47.1118 5.95186 46.8328 6.27147L37.9432 16.4249C37.8619 13.3782 37.7753 10.2123 37.7753 10.2123C37.759 9.63001 37.5099 9.08025 37.0821 8.68216L32.5273 4.45424Z" fill="#62A944"/>
<path fill-rule="evenodd" clip-rule="evenodd" d="M65.0003 39.1222C65.0003 37.397 64.3152 35.745 63.0966 34.5263C61.8781 33.3076 60.2263 32.6224 58.5014 32.6224H28.1736C26.4487 32.6224 24.7969 33.3076 23.5784 34.5263C22.3599 35.745 21.6748 37.397 21.6748 39.1222V58.6213C21.6748 60.3465 22.3599 61.9985 23.5784 63.2172C24.7969 64.4359 26.4487 65.1211 28.1736 65.1211H58.5014C60.2263 65.1211 61.8781 64.4359 63.0966 63.2172C64.3152 61.9985 65.0003 60.3465 65.0003 58.6213V39.1222ZM26.0074 44.2299V58.1341L33.1938 52.3223L36.7736 55.0007L29.6197 60.7909H57.061L49.9071 55.0007L53.4869 52.3223L60.6734 58.1341V44.2299L47.237 54.2911C44.9272 56.0217 41.7563 56.0217 39.4467 54.2911L26.0103 44.2299H26.0074ZM60.649 38.8297C60.5867 38.3611 60.3728 37.9251 60.0343 37.5893C59.6281 37.183 59.0757 36.9555 58.5017 36.9555H28.1739C27.5998 36.9555 27.0474 37.183 26.6413 37.5893C26.3028 37.9251 26.0889 38.3638 26.0266 38.8297L42.0411 50.8245C42.8101 51.4014 43.8661 51.4014 44.6352 50.8245L60.649 38.8297Z" fill="#FFA742"/>
</svg>
