<svg width="103" height="54" viewBox="0 0 103 54" fill="none" xmlns="http://www.w3.org/2000/svg">
<path d="M0 10.7486C0 9.95751 0.579491 9.56198 1.73847 9.56198C2.23518 9.56198 3.1826 9.58038 4.58074 9.61717C6.12604 9.69076 7.29422 9.72755 8.08528 9.72755C8.72915 9.72755 9.51101 9.69076 10.4308 9.61717C11.0563 9.58038 11.4518 9.56198 11.6174 9.56198C12.6292 9.59877 13.4847 9.78274 14.1837 10.1139C14.3861 10.2059 14.5517 10.3162 14.6804 10.445C14.8092 10.5738 14.8736 10.7854 14.8736 11.0797C14.8736 11.4844 14.7448 11.834 14.4873 12.1283C14.2297 12.4042 13.917 12.5422 13.549 12.5422C13.1443 12.5422 12.5556 12.487 11.783 12.3767C11.1023 12.2479 10.5044 12.1835 9.98932 12.1835C9.49261 12.1835 9.11548 12.1927 8.85793 12.2111C8.80274 12.8182 8.77514 14.2715 8.77514 16.5711C8.77514 19.3121 8.85793 22.09 9.0235 24.9047L9.07869 25.7049C9.07869 26.4592 8.64637 26.8363 7.78173 26.8363C7.10106 26.8363 6.64115 26.6799 6.40199 26.3672C6.16284 26.036 6.04326 25.5393 6.04326 24.8771C6.04326 23.5709 6.00647 21.9428 5.93288 19.9928C5.85929 18.3739 5.8225 17.2241 5.8225 16.5435C5.8225 16.0836 5.87769 14.6762 5.98807 12.3215L2.75948 12.3491C1.72927 12.3491 1.01181 12.2571 0.607085 12.0731C0.202362 11.8707 0 11.4292 0 10.7486ZM18.7171 25.7325C18.7171 26.0452 18.5975 26.3212 18.3584 26.5603C18.1192 26.7995 17.8249 26.9191 17.4753 26.9191C16.9234 26.9191 16.5187 26.8179 16.2612 26.6155C16.0036 26.3948 15.8748 25.9992 15.8748 25.429C15.8748 24.7483 15.8564 23.8561 15.8196 22.7523C15.7828 21.8324 15.7644 21.0598 15.7644 20.4343C15.7644 20.14 15.7828 19.7536 15.8196 19.2753C15.8564 18.8338 15.8748 18.5027 15.8748 18.2819C15.8196 17.9324 15.6817 17.6473 15.4609 17.4265C15.2401 17.1873 14.955 17.0678 14.6055 17.0678C14.4399 17.0678 14.3019 16.9942 14.1915 16.847C14.0812 16.6814 14.026 16.5159 14.026 16.3503C14.026 15.9272 14.1915 15.6052 14.5227 15.3845C14.8722 15.1637 15.2861 15.0533 15.7644 15.0533C16.7579 15.0533 17.4477 15.642 17.8341 16.8194C18.3124 16.2675 18.8551 15.826 19.4621 15.4949C20.0876 15.1453 20.6855 14.9706 21.2558 14.9706C21.9365 14.9706 22.5528 15.1545 23.1047 15.5225C23.675 15.8904 23.9601 16.3871 23.9601 17.0126C23.9601 17.3621 23.8037 17.7208 23.491 18.0888C23.1966 18.4567 22.8931 18.6407 22.5804 18.6407C22.4148 18.6407 22.2676 18.6039 22.1388 18.5303C22.0285 18.4383 21.8905 18.3095 21.7249 18.144C21.541 17.96 21.3846 17.8312 21.2558 17.7576C21.127 17.6657 20.9799 17.6197 20.8143 17.6197C20.52 17.6197 20.244 17.6657 19.9864 17.7576C19.7289 17.8496 19.5541 17.96 19.4621 18.0888C19.1678 18.5487 18.947 18.9626 18.7999 19.3305C18.6711 19.6984 18.6067 20.094 18.6067 20.5171C18.6067 20.8298 18.5975 21.0782 18.5791 21.2621L18.5515 22.835C18.5515 23.0742 18.5607 23.3409 18.5791 23.6353C18.5975 23.9296 18.6159 24.1504 18.6343 24.2976C18.6895 24.7943 18.7171 25.2726 18.7171 25.7325ZM38.1565 25.5117C38.1565 25.9165 37.9357 26.2568 37.4942 26.5327C37.0711 26.8087 36.6756 26.9467 36.3076 26.9467C35.6086 26.9467 35.0475 26.8639 34.6243 26.6983C34.2196 26.5144 33.8425 26.1832 33.493 25.7049C33.0146 26.128 32.3616 26.45 31.5337 26.6707C30.7059 26.8731 29.9424 26.9743 29.2434 26.9743C28.1028 26.9743 27.1645 26.6707 26.4287 26.0636C25.6928 25.4382 25.3249 24.5275 25.3249 23.3317C25.3249 22.8166 25.4629 22.3475 25.7388 21.9244C26.0148 21.4829 26.3919 21.0966 26.8702 20.7654C27.4037 20.4159 28.0108 20.1491 28.6915 19.9652C29.3721 19.7628 30.0804 19.6616 30.8163 19.6616C31.2026 19.6616 31.6625 19.7352 32.196 19.8824C32.7295 20.0296 33.1434 20.1859 33.4378 20.3515V19.91C33.4378 18.9166 33.1986 18.2359 32.7203 17.868C32.242 17.4817 31.4693 17.2885 30.4023 17.2885C30.0896 17.2885 29.7769 17.3529 29.4641 17.4817C29.1698 17.6105 28.8294 17.7852 28.4431 18.006C27.928 18.2819 27.4405 18.4199 26.9806 18.4199C26.815 18.4199 26.6586 18.3095 26.5115 18.0888C26.3643 17.8496 26.2907 17.6381 26.2907 17.4541C26.2907 16.9206 26.5391 16.4607 27.0358 16.0744C27.5509 15.688 28.158 15.4029 28.857 15.2189C29.5561 15.0166 30.1816 14.9154 30.7335 14.9154C31.2854 14.9154 31.92 15.0258 32.6375 15.2465C33.355 15.4489 33.9437 15.734 34.4036 16.1019C34.9555 16.5803 35.3786 17.1414 35.6729 17.7852C35.9857 18.4107 36.1421 19.1006 36.1421 19.8548C36.1421 20.094 36.1237 20.4527 36.0869 20.931C36.0501 21.4461 36.0317 21.8876 36.0317 22.2556C36.0317 22.4211 36.0133 22.6695 35.9765 23.0006C35.9397 23.4053 35.9213 23.7273 35.9213 23.9664C35.9213 24.1872 36.0041 24.3804 36.1696 24.5459C36.3352 24.6931 36.5284 24.7667 36.7491 24.7667L37.5218 24.7391C37.7242 24.7391 37.8805 24.8127 37.9909 24.9598C38.1013 25.107 38.1565 25.291 38.1565 25.5117ZM29.2709 24.7943C30.062 24.7943 30.7243 24.7115 31.2578 24.5459C31.7913 24.3804 32.4352 24.0768 33.1894 23.6353C33.263 23.3226 33.309 22.9086 33.3274 22.3935C32.3156 21.9152 31.4785 21.6761 30.8163 21.6761C30.062 21.6761 29.3905 21.814 28.8018 22.09C28.2131 22.3659 27.9188 22.8534 27.9188 23.5525C27.9188 23.902 28.066 24.1964 28.3603 24.4355C28.6547 24.6747 28.9582 24.7943 29.2709 24.7943ZM46.3931 19.7444C46.4482 19.5973 46.6414 19.0638 46.9726 18.144C47.3221 17.2241 47.644 16.5251 47.9384 16.0468C48.4167 15.2925 48.8398 14.9154 49.2077 14.9154C49.7228 14.9154 50.1184 15.0166 50.3943 15.2189C50.6703 15.4029 50.8082 15.6696 50.8082 16.0192C50.8082 16.1847 50.7346 16.4147 50.5875 16.709C50.4587 17.0034 50.3851 17.1781 50.3667 17.2333C49.6308 18.8522 48.9686 20.5907 48.3799 22.4487L47.8004 24.6011C47.5796 25.3002 47.2025 25.8705 46.669 26.312C46.1355 26.7351 45.51 26.9467 44.7926 26.9467C44.1487 26.9467 43.5508 26.6523 42.9989 26.0636C42.6678 25.5485 42.3182 24.8955 41.9503 24.1044C41.6008 23.3134 41.2972 22.5407 41.0397 21.7864L40.0739 18.889C39.8715 18.3187 39.7059 17.8312 39.5771 17.4265C39.4668 17.0218 39.4116 16.6538 39.4116 16.3227C39.3932 15.9364 39.5036 15.6236 39.7427 15.3845C39.9819 15.1453 40.313 15.0258 40.7361 15.0258C41.2144 15.0258 41.5548 15.1269 41.7571 15.3293C41.9595 15.5133 42.1435 15.8076 42.309 16.2123C42.3826 16.6354 42.585 17.5001 42.9161 18.8062L43.1093 19.5789C43.2748 20.2043 43.4864 20.839 43.744 21.4829C44.0015 22.1268 44.2591 22.7431 44.5166 23.3317C44.4798 23.2398 44.6086 23.5433 44.9029 24.2424C45.0869 23.7089 45.2985 23.0558 45.5376 22.2831L46.3931 19.7444ZM52.4885 20.5171C52.4885 19.3949 52.7369 18.4659 53.2336 17.73C53.7303 16.9758 54.4202 16.2675 55.3032 15.6052C55.5607 15.4213 55.9931 15.2649 56.6001 15.1361C57.2072 14.989 57.7407 14.9154 58.2006 14.9154C58.7525 14.9154 59.332 15.0349 59.9391 15.2741C60.5646 15.4949 61.0705 15.7524 61.4568 16.0468C62.1375 16.5435 62.6066 17.123 62.8642 17.7852C63.1217 18.4291 63.2505 19.2018 63.2505 20.1032C63.2505 20.4895 63.0297 20.8666 62.5882 21.2345C62.1651 21.5841 61.7052 21.7588 61.2085 21.7588L60.1599 21.7313C59.6264 21.7313 58.8629 21.7496 57.8695 21.7864L57.29 21.814C56.8853 21.8508 56.5817 21.8692 56.3794 21.8692C56.085 21.8692 55.6803 21.8324 55.1652 21.7588C55.2388 22.6235 55.5607 23.3042 56.131 23.8009C56.7013 24.2792 57.3176 24.5183 57.9799 24.5183C59.1389 24.5183 59.9483 24.2884 60.4082 23.8285C60.7946 23.5525 61.0521 23.3777 61.1809 23.3042C61.3097 23.2306 61.512 23.1938 61.788 23.1938C62.0823 23.1938 62.3399 23.3317 62.5606 23.6077C62.7814 23.8836 62.8918 24.1596 62.8918 24.4355C62.8918 24.7483 62.6986 25.0702 62.3123 25.4014C61.9443 25.7141 61.4384 26.0452 60.7946 26.3948C60.445 26.5419 59.9667 26.6707 59.3596 26.7811C58.7525 26.8915 58.2466 26.9467 57.8419 26.9467C57.198 26.9467 56.4806 26.7627 55.6895 26.3948C54.8985 26.0084 54.3098 25.5853 53.9234 25.1254C53.5371 24.6655 53.1968 24.0124 52.9024 23.1662C52.6265 22.3199 52.4885 21.4369 52.4885 20.5171ZM57.9799 19.772C59.286 19.772 60.2427 19.726 60.8497 19.634C60.8129 19.1006 60.6474 18.6683 60.353 18.3371C60.0587 17.9876 59.654 17.6932 59.1389 17.4541C58.9733 17.3805 58.8261 17.3253 58.6973 17.2885C58.5686 17.2517 58.4214 17.2333 58.2558 17.2333C57.4096 17.2333 56.6921 17.4633 56.1034 17.9232C55.5331 18.3831 55.1928 18.9718 55.0824 19.6892C56.0023 19.7444 56.9681 19.772 57.9799 19.772ZM68.9518 22.5591C68.9518 23.2582 69.053 23.8009 69.2553 24.1872C69.4761 24.5551 69.7521 24.7391 70.0832 24.7391C70.2672 24.7391 70.4419 24.7299 70.6075 24.7115C70.7731 24.6747 70.9386 24.6563 71.1042 24.6563C71.2882 24.6563 71.4445 24.7483 71.5733 24.9322C71.7205 25.1162 71.7941 25.3186 71.7941 25.5393C71.7941 25.9809 71.5825 26.3304 71.1594 26.5879C70.7547 26.8271 70.2028 26.9467 69.5037 26.9467C69.007 26.9467 68.5011 26.7995 67.986 26.5052C67.4893 26.1924 67.0754 25.7141 66.7442 25.0702C66.4131 24.4079 66.2475 23.5893 66.2475 22.6143C66.2475 20.5171 66.2843 18.7419 66.3579 17.2885C66.4499 15.5593 66.4959 13.3793 66.4959 10.7486C66.4959 9.92071 66.5419 9.34122 66.6338 9.01009C66.7442 8.75254 66.919 8.55937 67.1581 8.4306C67.4157 8.28342 67.6824 8.20984 67.9584 8.20984C68.2343 8.20984 68.4735 8.25583 68.6759 8.34781C68.8966 8.4398 69.0438 8.58697 69.1174 8.78933C69.191 9.01009 69.2369 9.23084 69.2553 9.4516C69.2921 9.65396 69.3105 9.94831 69.3105 10.3346C69.3105 11.0889 69.2829 11.8156 69.2278 12.5146C69.191 13.3609 69.1726 13.9771 69.1726 14.3635C69.0254 17.6013 68.9518 20.3331 68.9518 22.5591Z" fill="#62A944"/>
<path d="M101.076 5.78323C102.344 4.46655 102.344 2.31555 101.076 0.98751C99.8072 -0.32917 97.7238 -0.32917 96.4554 0.98751C96.0867 1.37025 93.8558 3.86573 90.9132 7.24914L75.5659 5.30478L73.0585 7.89209L85.6361 13.3845C84.1169 15.1527 82.6014 16.9592 81.1485 18.7008L74.0871 18.85L72.1328 20.8785L77.675 22.9874L79.2975 23.5921L79.8801 25.2763L81.9118 31.0441L83.8772 29.0156L84.0099 21.6861C85.6988 20.1781 87.4392 18.5897 89.1428 17.0281L94.4233 30.0685L96.9307 27.4659L95.0575 11.5361V11.5208C98.3024 8.48175 100.707 6.17771 101.075 5.77961L101.076 5.78323Z" fill="#62A944"/>
<path d="M20.2844 54C30.6683 54 45.1841 49.0056 60.5625 39.6634C61.6763 38.9987 62.7902 38.298 63.904 37.5794C66.6706 35.8008 69.3475 33.9684 71.8626 32.1359C74.4676 30.2316 77.0008 28.2554 79.4441 26.2074L78.9051 24.7522L76.6056 23.9078C74.3958 25.7403 72.0783 27.5188 69.7427 29.2256C67.2815 31.04 64.6585 32.8186 61.9638 34.5613C59.0893 36.4117 56.2148 38.1185 53.3943 39.6634C33.3444 50.6043 15.1456 53.8023 9.91871 46.6519C6.66701 42.1965 8.69706 33.9503 15.1646 24.2311V18.105C5.19379 31.1297 2.22953 42.2148 7.00826 48.772C9.59527 52.2932 14.2479 54 20.2844 54Z" fill="#62A944"/>
</svg>
